<mxfile host="app.diagrams.net" modified="2022-11-18T08:31:13.114Z" agent="5.0 (Windows NT 10.0; Win64; x64) AppleWebKit/537.36 (KHTML, like Gecko) Chrome/103.0.0.0 Safari/537.36" etag="XfKhEbArk8vbux32quDY" version="20.4.0" type="github">
  <diagram id="f5aA6mKZVOiBzjaRbKyW" name="第 1 页">
    <mxGraphModel dx="2062" dy="2259" grid="1" gridSize="10" guides="1" tooltips="1" connect="1" arrows="1" fold="1" page="1" pageScale="1" pageWidth="827" pageHeight="1169" math="0" shadow="0">
      <root>
        <mxCell id="0" />
        <mxCell id="1" parent="0" />
        <mxCell id="h2EVxIKH0hydPoliz-5T-83" value="" style="rounded=0;whiteSpace=wrap;html=1;fontSize=14;" parent="1" vertex="1">
          <mxGeometry x="20" y="-15" width="790" height="940" as="geometry" />
        </mxCell>
        <mxCell id="h2EVxIKH0hydPoliz-5T-13" style="edgeStyle=orthogonalEdgeStyle;rounded=0;orthogonalLoop=1;jettySize=auto;html=1;entryX=0;entryY=0.5;entryDx=0;entryDy=0;" parent="1" source="h2EVxIKH0hydPoliz-5T-1" target="h2EVxIKH0hydPoliz-5T-12" edge="1">
          <mxGeometry relative="1" as="geometry" />
        </mxCell>
        <mxCell id="h2EVxIKH0hydPoliz-5T-1" value="" style="strokeColor=#666666;html=1;verticalLabelPosition=bottom;labelBackgroundColor=#ffffff;verticalAlign=top;outlineConnect=0;shadow=0;dashed=0;shape=mxgraph.rackGeneral.container;fillColor2=#f4f4f4;container=1;collapsible=0;childLayout=rack;allowGaps=1;marginLeft=33;marginRight=9;marginTop=21;marginBottom=22;textColor=#666666;numDisp=ascend;" parent="1" vertex="1">
          <mxGeometry x="291" y="749" width="100" height="131" as="geometry" />
        </mxCell>
        <mxCell id="h2EVxIKH0hydPoliz-5T-51" value="变电柜" style="text;html=1;strokeColor=none;fillColor=none;align=center;verticalAlign=middle;whiteSpace=wrap;rounded=0;fontStyle=1" parent="h2EVxIKH0hydPoliz-5T-1" vertex="1">
          <mxGeometry x="33" y="50.5" width="58" height="30" as="geometry" />
        </mxCell>
        <mxCell id="h2EVxIKH0hydPoliz-5T-19" style="edgeStyle=orthogonalEdgeStyle;rounded=0;orthogonalLoop=1;jettySize=auto;html=1;" parent="1" source="h2EVxIKH0hydPoliz-5T-4" target="h2EVxIKH0hydPoliz-5T-12" edge="1">
          <mxGeometry relative="1" as="geometry" />
        </mxCell>
        <mxCell id="h2EVxIKH0hydPoliz-5T-4" value="" style="sketch=0;outlineConnect=0;fontColor=#232F3E;gradientColor=none;fillColor=#3F8624;strokeColor=none;dashed=0;verticalLabelPosition=bottom;verticalAlign=top;align=center;html=1;fontSize=12;fontStyle=0;aspect=fixed;pointerEvents=1;shape=mxgraph.aws4.door_lock;" parent="1" vertex="1">
          <mxGeometry x="151" y="620" width="78" height="78" as="geometry" />
        </mxCell>
        <mxCell id="h2EVxIKH0hydPoliz-5T-5" value="锁控装置" style="text;html=1;strokeColor=none;fillColor=none;align=center;verticalAlign=middle;whiteSpace=wrap;rounded=0;fontStyle=1;fontColor=#0066CC;" parent="1" vertex="1">
          <mxGeometry x="160" y="590" width="60" height="30" as="geometry" />
        </mxCell>
        <mxCell id="h2EVxIKH0hydPoliz-5T-22" style="edgeStyle=orthogonalEdgeStyle;rounded=0;orthogonalLoop=1;jettySize=auto;html=1;" parent="1" target="h2EVxIKH0hydPoliz-5T-12" edge="1">
          <mxGeometry relative="1" as="geometry">
            <mxPoint x="480.5" y="749" as="sourcePoint" />
          </mxGeometry>
        </mxCell>
        <mxCell id="h2EVxIKH0hydPoliz-5T-15" style="edgeStyle=orthogonalEdgeStyle;rounded=0;orthogonalLoop=1;jettySize=auto;html=1;entryX=1;entryY=0.5;entryDx=0;entryDy=0;" parent="1" target="h2EVxIKH0hydPoliz-5T-12" edge="1">
          <mxGeometry relative="1" as="geometry">
            <mxPoint x="611" y="834" as="sourcePoint" />
          </mxGeometry>
        </mxCell>
        <mxCell id="h2EVxIKH0hydPoliz-5T-10" value="电子标签" style="text;html=1;strokeColor=none;fillColor=none;align=center;verticalAlign=middle;whiteSpace=wrap;rounded=0;fontStyle=1" parent="1" vertex="1">
          <mxGeometry x="235" y="790" width="60" height="30" as="geometry" />
        </mxCell>
        <mxCell id="h2EVxIKH0hydPoliz-5T-12" value="" style="shape=image;html=1;verticalAlign=top;verticalLabelPosition=bottom;labelBackgroundColor=#ffffff;imageAspect=0;aspect=fixed;image=https://cdn1.iconfinder.com/data/icons/nuvola2/128x128/apps/kcmpci.png" parent="1" vertex="1">
          <mxGeometry x="440.5" y="620" width="79" height="79" as="geometry" />
        </mxCell>
        <mxCell id="h2EVxIKH0hydPoliz-5T-24" value="" style="points=[[0.005,0.09,0],[0.08,0,0],[0.76,0.25,0],[1,0.92,0],[0.91,0.995,0],[0.57,0.995,0],[0.045,0.955,0],[0.005,0.43,0]];verticalLabelPosition=bottom;sketch=0;html=1;verticalAlign=top;aspect=fixed;align=center;pointerEvents=1;shape=mxgraph.cisco19.3g_4g_indicator;fillColor=#005073;strokeColor=none;" parent="1" vertex="1">
          <mxGeometry x="500" y="500" width="30" height="30" as="geometry" />
        </mxCell>
        <mxCell id="h2EVxIKH0hydPoliz-5T-63" value="" style="edgeStyle=orthogonalEdgeStyle;rounded=0;orthogonalLoop=1;jettySize=auto;html=1;" parent="1" source="h2EVxIKH0hydPoliz-5T-25" target="h2EVxIKH0hydPoliz-5T-61" edge="1">
          <mxGeometry relative="1" as="geometry" />
        </mxCell>
        <mxCell id="h2EVxIKH0hydPoliz-5T-68" value="" style="edgeStyle=orthogonalEdgeStyle;rounded=0;orthogonalLoop=1;jettySize=auto;html=1;" parent="1" source="h2EVxIKH0hydPoliz-5T-25" target="h2EVxIKH0hydPoliz-5T-62" edge="1">
          <mxGeometry relative="1" as="geometry" />
        </mxCell>
        <mxCell id="h2EVxIKH0hydPoliz-5T-25" value="&lt;b&gt;&lt;font color=&quot;#67ab9f&quot;&gt;云端服务器&lt;/font&gt;&lt;/b&gt;" style="sketch=0;outlineConnect=0;gradientColor=none;html=1;whiteSpace=wrap;fontSize=12;fontStyle=0;shape=mxgraph.aws4.group;grIcon=mxgraph.aws4.group_aws_cloud;strokeColor=#66B2FF;fillColor=none;verticalAlign=top;align=left;spacingLeft=30;fontColor=#AAB7B8;dashed=0;" parent="1" vertex="1">
          <mxGeometry x="400" y="265" width="160" height="90" as="geometry" />
        </mxCell>
        <mxCell id="h2EVxIKH0hydPoliz-5T-27" value="" style="aspect=fixed;perimeter=ellipsePerimeter;html=1;align=center;shadow=0;dashed=0;spacingTop=3;image;image=img/lib/active_directory/internet_cloud.svg;" parent="1" vertex="1">
          <mxGeometry x="420" y="315" width="50" height="31.5" as="geometry" />
        </mxCell>
        <mxCell id="h2EVxIKH0hydPoliz-5T-28" value="" style="aspect=fixed;perimeter=ellipsePerimeter;html=1;align=center;shadow=0;dashed=0;spacingTop=3;image;image=img/lib/active_directory/internet_cloud.svg;" parent="1" vertex="1">
          <mxGeometry x="464" y="283.5" width="50" height="31.5" as="geometry" />
        </mxCell>
        <mxCell id="h2EVxIKH0hydPoliz-5T-33" value="4G" style="text;html=1;strokeColor=none;fillColor=none;align=center;verticalAlign=middle;whiteSpace=wrap;rounded=0;fontColor=#FF0080;" parent="1" vertex="1">
          <mxGeometry x="480" y="532" width="60" height="30" as="geometry" />
        </mxCell>
        <mxCell id="h2EVxIKH0hydPoliz-5T-35" value="" style="html=1;verticalLabelPosition=bottom;align=center;labelBackgroundColor=#ffffff;verticalAlign=top;strokeWidth=2;strokeColor=#0080F0;shadow=0;dashed=0;shape=mxgraph.ios7.icons.smartphone;" parent="1" vertex="1">
          <mxGeometry x="235" y="402" width="40" height="60" as="geometry" />
        </mxCell>
        <mxCell id="h2EVxIKH0hydPoliz-5T-36" value="手持终端" style="text;html=1;strokeColor=none;fillColor=none;align=center;verticalAlign=middle;whiteSpace=wrap;rounded=0;fontStyle=1;fontSize=14;fontColor=#0066CC;" parent="1" vertex="1">
          <mxGeometry x="225" y="472" width="60" height="30" as="geometry" />
        </mxCell>
        <mxCell id="h2EVxIKH0hydPoliz-5T-38" value="" style="shape=mxgraph.cisco.computers_and_peripherals.workstation;html=1;pointerEvents=1;dashed=0;fillColor=#036897;strokeColor=#ffffff;strokeWidth=2;verticalLabelPosition=bottom;verticalAlign=top;align=center;outlineConnect=0;" parent="1" vertex="1">
          <mxGeometry x="438.5" y="80" width="83" height="62" as="geometry" />
        </mxCell>
        <mxCell id="h2EVxIKH0hydPoliz-5T-39" value="PC 管理系统" style="text;html=1;strokeColor=none;fillColor=none;align=center;verticalAlign=middle;whiteSpace=wrap;rounded=0;fontStyle=1;fontSize=14;fontColor=#0066CC;" parent="1" vertex="1">
          <mxGeometry x="434" y="40" width="87.5" height="30" as="geometry" />
        </mxCell>
        <mxCell id="h2EVxIKH0hydPoliz-5T-40" value="1.系统管理" style="ellipse;shape=cloud;whiteSpace=wrap;html=1;strokeColor=#9673a6;fontStyle=1;fillColor=#e1d5e7;" parent="1" vertex="1">
          <mxGeometry x="300" y="10" width="110" height="60" as="geometry" />
        </mxCell>
        <mxCell id="h2EVxIKH0hydPoliz-5T-41" value="3.可视化监控" style="ellipse;shape=cloud;whiteSpace=wrap;html=1;strokeColor=#9673a6;fontStyle=1;fillColor=#e1d5e7;" parent="1" vertex="1">
          <mxGeometry x="295" y="123.5" width="110" height="60" as="geometry" />
        </mxCell>
        <mxCell id="h2EVxIKH0hydPoliz-5T-42" value="2.任务管理" style="ellipse;shape=cloud;whiteSpace=wrap;html=1;strokeColor=#9673a6;fontStyle=1;fillColor=#e1d5e7;" parent="1" vertex="1">
          <mxGeometry x="555.5" y="10" width="110" height="60" as="geometry" />
        </mxCell>
        <mxCell id="h2EVxIKH0hydPoliz-5T-43" value="4.统计分析" style="ellipse;shape=cloud;whiteSpace=wrap;html=1;strokeColor=#9673a6;fontStyle=1;fillColor=#e1d5e7;" parent="1" vertex="1">
          <mxGeometry x="555.5" y="120" width="110" height="60" as="geometry" />
        </mxCell>
        <mxCell id="h2EVxIKH0hydPoliz-5T-44" value="1.签到" style="ellipse;shape=cloud;whiteSpace=wrap;html=1;strokeColor=#9673a6;fontStyle=1;fillColor=#e1d5e7;" parent="1" vertex="1">
          <mxGeometry x="82" y="302" width="110" height="60" as="geometry" />
        </mxCell>
        <mxCell id="h2EVxIKH0hydPoliz-5T-45" value="2.图像比对" style="ellipse;shape=cloud;whiteSpace=wrap;html=1;strokeColor=#9673a6;fontStyle=1;fillColor=#e1d5e7;" parent="1" vertex="1">
          <mxGeometry x="82" y="372" width="110" height="60" as="geometry" />
        </mxCell>
        <mxCell id="h2EVxIKH0hydPoliz-5T-46" value="3.任务管理" style="ellipse;shape=cloud;whiteSpace=wrap;html=1;strokeColor=#9673a6;fontStyle=1;fillColor=#e1d5e7;" parent="1" vertex="1">
          <mxGeometry x="82" y="440" width="110" height="60" as="geometry" />
        </mxCell>
        <mxCell id="h2EVxIKH0hydPoliz-5T-47" value="" style="aspect=fixed;perimeter=ellipsePerimeter;html=1;align=center;shadow=0;dashed=0;spacingTop=3;image;image=img/lib/active_directory/internet_cloud.svg;" parent="1" vertex="1">
          <mxGeometry x="500" y="315" width="50" height="31.5" as="geometry" />
        </mxCell>
        <mxCell id="h2EVxIKH0hydPoliz-5T-52" value="4.准入校验" style="ellipse;shape=cloud;whiteSpace=wrap;html=1;strokeColor=#9673a6;fontStyle=1;fillColor=#e1d5e7;" parent="1" vertex="1">
          <mxGeometry x="82" y="502" width="110" height="60" as="geometry" />
        </mxCell>
        <mxCell id="0t1G-UWzfi1k0xEK51TH-1" style="edgeStyle=orthogonalEdgeStyle;rounded=0;orthogonalLoop=1;jettySize=auto;html=1;fontSize=14;fontColor=#0066CC;" edge="1" parent="1" source="h2EVxIKH0hydPoliz-5T-54" target="h2EVxIKH0hydPoliz-5T-25">
          <mxGeometry relative="1" as="geometry" />
        </mxCell>
        <mxCell id="h2EVxIKH0hydPoliz-5T-54" value="" style="aspect=fixed;perimeter=ellipsePerimeter;html=1;align=center;shadow=0;dashed=0;spacingTop=3;image;image=img/lib/active_directory/database_server.svg;strokeColor=#66B2FF;" parent="1" vertex="1">
          <mxGeometry x="640.5" y="233.5" width="41" height="50" as="geometry" />
        </mxCell>
        <mxCell id="0t1G-UWzfi1k0xEK51TH-2" style="edgeStyle=orthogonalEdgeStyle;rounded=0;orthogonalLoop=1;jettySize=auto;html=1;fontSize=14;fontColor=#0066CC;" edge="1" parent="1" source="h2EVxIKH0hydPoliz-5T-57" target="h2EVxIKH0hydPoliz-5T-25">
          <mxGeometry relative="1" as="geometry" />
        </mxCell>
        <mxCell id="h2EVxIKH0hydPoliz-5T-57" value="" style="sketch=0;points=[[0,0,0],[0.25,0,0],[0.5,0,0],[0.75,0,0],[1,0,0],[0,1,0],[0.25,1,0],[0.5,1,0],[0.75,1,0],[1,1,0],[0,0.25,0],[0,0.5,0],[0,0.75,0],[1,0.25,0],[1,0.5,0],[1,0.75,0]];outlineConnect=0;fontColor=#232F3E;gradientColor=#4AB29A;gradientDirection=north;fillColor=#116D5B;strokeColor=#ffffff;dashed=0;verticalLabelPosition=bottom;verticalAlign=top;align=center;html=1;fontSize=12;fontStyle=0;aspect=fixed;shape=mxgraph.aws4.resourceIcon;resIcon=mxgraph.aws4.augmented_ai;" parent="1" vertex="1">
          <mxGeometry x="638" y="325" width="52" height="52" as="geometry" />
        </mxCell>
        <mxCell id="h2EVxIKH0hydPoliz-5T-58" value="算法推理" style="text;html=1;strokeColor=none;fillColor=none;align=center;verticalAlign=middle;whiteSpace=wrap;rounded=0;fontStyle=1;fontSize=14;fontColor=#00CCCC;" parent="1" vertex="1">
          <mxGeometry x="700" y="332" width="60" height="30" as="geometry" />
        </mxCell>
        <mxCell id="h2EVxIKH0hydPoliz-5T-59" value="数据存储" style="text;html=1;strokeColor=none;fillColor=none;align=center;verticalAlign=middle;whiteSpace=wrap;rounded=0;fontSize=14;fontStyle=1;fontColor=#00CCCC;" parent="1" vertex="1">
          <mxGeometry x="690" y="253.5" width="60" height="30" as="geometry" />
        </mxCell>
        <mxCell id="h2EVxIKH0hydPoliz-5T-60" style="edgeStyle=orthogonalEdgeStyle;rounded=0;orthogonalLoop=1;jettySize=auto;html=1;exitX=0.5;exitY=1;exitDx=0;exitDy=0;exitPerimeter=0;" parent="1" source="h2EVxIKH0hydPoliz-5T-57" target="h2EVxIKH0hydPoliz-5T-57" edge="1">
          <mxGeometry relative="1" as="geometry" />
        </mxCell>
        <mxCell id="h2EVxIKH0hydPoliz-5T-67" style="edgeStyle=orthogonalEdgeStyle;rounded=0;orthogonalLoop=1;jettySize=auto;html=1;" parent="1" source="h2EVxIKH0hydPoliz-5T-61" target="h2EVxIKH0hydPoliz-5T-38" edge="1">
          <mxGeometry relative="1" as="geometry" />
        </mxCell>
        <mxCell id="h2EVxIKH0hydPoliz-5T-61" value="" style="verticalLabelPosition=bottom;sketch=0;html=1;fillColor=#6ABD46;strokeColor=#ffffff;verticalAlign=top;align=center;points=[[0.085,0.085,0],[0.915,0.085,0],[0.915,0.915,0],[0.085,0.915,0],[0.25,0,0],[0.5,0,0],[0.75,0,0],[1,0.25,0],[1,0.5,0],[1,0.75,0],[0.75,1,0],[0.5,1,0],[0.25,1,0],[0,0.75,0],[0,0.5,0],[0,0.25,0]];pointerEvents=1;shape=mxgraph.cisco_safe.compositeIcon;bgIcon=mxgraph.cisco_safe.architecture.generic_appliance;resIcon=mxgraph.cisco_safe.architecture.web_application_firewall;" parent="1" vertex="1">
          <mxGeometry x="455.5" y="183.5" width="50" height="50" as="geometry" />
        </mxCell>
        <mxCell id="h2EVxIKH0hydPoliz-5T-69" style="edgeStyle=orthogonalEdgeStyle;rounded=0;orthogonalLoop=1;jettySize=auto;html=1;" parent="1" source="h2EVxIKH0hydPoliz-5T-62" target="h2EVxIKH0hydPoliz-5T-35" edge="1">
          <mxGeometry relative="1" as="geometry" />
        </mxCell>
        <mxCell id="h2EVxIKH0hydPoliz-5T-62" value="" style="verticalLabelPosition=bottom;sketch=0;html=1;fillColor=#6ABD46;strokeColor=#ffffff;verticalAlign=top;align=center;points=[[0.085,0.085,0],[0.915,0.085,0],[0.915,0.915,0],[0.085,0.915,0],[0.25,0,0],[0.5,0,0],[0.75,0,0],[1,0.25,0],[1,0.5,0],[1,0.75,0],[0.75,1,0],[0.5,1,0],[0.25,1,0],[0,0.75,0],[0,0.5,0],[0,0.25,0]];pointerEvents=1;shape=mxgraph.cisco_safe.compositeIcon;bgIcon=mxgraph.cisco_safe.architecture.generic_appliance;resIcon=mxgraph.cisco_safe.architecture.web_application_firewall;" parent="1" vertex="1">
          <mxGeometry x="316" y="285" width="50" height="50" as="geometry" />
        </mxCell>
        <mxCell id="h2EVxIKH0hydPoliz-5T-70" value="边缘设备" style="text;html=1;strokeColor=none;fillColor=none;align=center;verticalAlign=middle;whiteSpace=wrap;rounded=0;fontStyle=1;fontSize=14;fontColor=#0066CC;" parent="1" vertex="1">
          <mxGeometry x="505.5" y="600" width="60" height="30" as="geometry" />
        </mxCell>
        <mxCell id="h2EVxIKH0hydPoliz-5T-71" value="lora传输" style="text;html=1;strokeColor=none;fillColor=none;align=center;verticalAlign=middle;whiteSpace=wrap;rounded=0;fontColor=#FF0080;" parent="1" vertex="1">
          <mxGeometry x="480" y="710" width="60" height="30" as="geometry" />
        </mxCell>
        <mxCell id="h2EVxIKH0hydPoliz-5T-72" value="lora传输" style="text;html=1;strokeColor=none;fillColor=none;align=center;verticalAlign=middle;whiteSpace=wrap;rounded=0;fontColor=#FF0080;" parent="1" vertex="1">
          <mxGeometry x="350" y="680" width="60" height="30" as="geometry" />
        </mxCell>
        <mxCell id="h2EVxIKH0hydPoliz-5T-73" value="lora传输" style="text;html=1;strokeColor=none;fillColor=none;align=center;verticalAlign=middle;whiteSpace=wrap;rounded=0;fontColor=#FF0080;" parent="1" vertex="1">
          <mxGeometry x="580.5" y="680" width="60" height="30" as="geometry" />
        </mxCell>
        <mxCell id="h2EVxIKH0hydPoliz-5T-75" value="" style="verticalLabelPosition=bottom;sketch=0;html=1;fillColor=#6ABD46;strokeColor=#ffffff;verticalAlign=top;align=center;points=[[0.085,0.085,0],[0.915,0.085,0],[0.915,0.915,0],[0.085,0.915,0],[0.25,0,0],[0.5,0,0],[0.75,0,0],[1,0.25,0],[1,0.5,0],[1,0.75,0],[0.75,1,0],[0.5,1,0],[0.25,1,0],[0,0.75,0],[0,0.5,0],[0,0.25,0]];pointerEvents=1;shape=mxgraph.cisco_safe.compositeIcon;bgIcon=mxgraph.cisco_safe.architecture.generic_appliance;resIcon=mxgraph.cisco_safe.architecture.web_application_firewall_2;" parent="1" vertex="1">
          <mxGeometry x="455.5" y="430" width="50" height="50" as="geometry" />
        </mxCell>
        <mxCell id="h2EVxIKH0hydPoliz-5T-76" value="" style="endArrow=classic;startArrow=classic;html=1;rounded=0;entryX=0.5;entryY=1;entryDx=0;entryDy=0;entryPerimeter=0;" parent="1" source="h2EVxIKH0hydPoliz-5T-12" target="h2EVxIKH0hydPoliz-5T-75" edge="1">
          <mxGeometry width="50" height="50" relative="1" as="geometry">
            <mxPoint x="390" y="560" as="sourcePoint" />
            <mxPoint x="440" y="510" as="targetPoint" />
          </mxGeometry>
        </mxCell>
        <mxCell id="h2EVxIKH0hydPoliz-5T-77" value="" style="strokeColor=#666666;html=1;verticalLabelPosition=bottom;labelBackgroundColor=#ffffff;verticalAlign=top;outlineConnect=0;shadow=0;dashed=0;shape=mxgraph.rackGeneral.container;fillColor2=#f4f4f4;container=1;collapsible=0;childLayout=rack;allowGaps=1;marginLeft=33;marginRight=9;marginTop=21;marginBottom=22;textColor=#666666;numDisp=ascend;" parent="1" vertex="1">
          <mxGeometry x="438.5" y="749" width="100" height="131" as="geometry" />
        </mxCell>
        <mxCell id="h2EVxIKH0hydPoliz-5T-84" value="变电柜" style="text;html=1;strokeColor=none;fillColor=none;align=center;verticalAlign=middle;whiteSpace=wrap;rounded=0;fontStyle=1" parent="h2EVxIKH0hydPoliz-5T-77" vertex="1">
          <mxGeometry x="33" y="50.5" width="58" height="30" as="geometry" />
        </mxCell>
        <mxCell id="h2EVxIKH0hydPoliz-5T-78" value="" style="strokeColor=#666666;html=1;verticalLabelPosition=bottom;labelBackgroundColor=#ffffff;verticalAlign=top;outlineConnect=0;shadow=0;dashed=0;shape=mxgraph.rackGeneral.container;fillColor2=#f4f4f4;container=1;collapsible=0;childLayout=rack;allowGaps=1;marginLeft=33;marginRight=9;marginTop=21;marginBottom=22;textColor=#666666;numDisp=ascend;" parent="1" vertex="1">
          <mxGeometry x="611" y="749" width="100" height="131" as="geometry" />
        </mxCell>
        <mxCell id="h2EVxIKH0hydPoliz-5T-85" value="变电柜" style="text;html=1;strokeColor=none;fillColor=none;align=center;verticalAlign=middle;whiteSpace=wrap;rounded=0;fontStyle=1" parent="h2EVxIKH0hydPoliz-5T-78" vertex="1">
          <mxGeometry x="33" y="50.5" width="58" height="30" as="geometry" />
        </mxCell>
        <mxCell id="h2EVxIKH0hydPoliz-5T-79" value="安全防护" style="text;html=1;strokeColor=none;fillColor=none;align=center;verticalAlign=middle;whiteSpace=wrap;rounded=0;fontStyle=1;fontColor=#00CC66;" parent="1" vertex="1">
          <mxGeometry x="311" y="347" width="60" height="30" as="geometry" />
        </mxCell>
        <mxCell id="h2EVxIKH0hydPoliz-5T-80" value="安全防护" style="text;html=1;strokeColor=none;fillColor=none;align=center;verticalAlign=middle;whiteSpace=wrap;rounded=0;fontStyle=1;fontColor=#00CC00;" parent="1" vertex="1">
          <mxGeometry x="514" y="193.5" width="60" height="30" as="geometry" />
        </mxCell>
        <mxCell id="h2EVxIKH0hydPoliz-5T-81" value="" style="endArrow=classic;startArrow=classic;html=1;rounded=0;exitX=0.5;exitY=0;exitDx=0;exitDy=0;exitPerimeter=0;" parent="1" source="h2EVxIKH0hydPoliz-5T-75" target="h2EVxIKH0hydPoliz-5T-25" edge="1">
          <mxGeometry width="50" height="50" relative="1" as="geometry">
            <mxPoint x="390" y="560" as="sourcePoint" />
            <mxPoint x="440" y="510" as="targetPoint" />
          </mxGeometry>
        </mxCell>
        <mxCell id="h2EVxIKH0hydPoliz-5T-82" value="准入校验" style="text;html=1;strokeColor=none;fillColor=none;align=center;verticalAlign=middle;whiteSpace=wrap;rounded=0;fontStyle=1;fontColor=#00CCCC;" parent="1" vertex="1">
          <mxGeometry x="521.5" y="440" width="60" height="30" as="geometry" />
        </mxCell>
      </root>
    </mxGraphModel>
  </diagram>
</mxfile>
